<?xml version="1.0" encoding="UTF-8"?>
<svg width="21px" height="21px" viewBox="0 0 21 21" version="1.1" xmlns="http://www.w3.org/2000/svg" xmlns:xlink="http://www.w3.org/1999/xlink">
    <!-- Generator: Sketch 48.2 (47327) - http://www.bohemiancoding.com/sketch -->
    <title>Dribbble_3_</title>
    <desc>Created with Sketch.</desc>
    <defs></defs>
    <g id="Template_white" stroke="none" stroke-width="1" fill="none" fill-rule="evenodd" transform="translate(-579.000000, -521.000000)">
        <g id="Header" transform="translate(444.000000, 231.000000)" fill="#000000">
            <g id="Group" transform="translate(117.000000, 275.000000)">
                <g id="social-network101" transform="translate(18.000000, 15.000000)">
                    <path d="M10.4816743,0 C4.69054071,0.000876826722 0,4.69054071 0,10.4825511 C0,16.2728079 4.69054071,20.9633486 10.4816743,20.9633486 C16.2728079,20.9633486 20.9633486,16.2728079 20.9633486,10.4825511 C20.9633925,4.69054071 16.2728079,0.000876826722 10.4816743,0 L10.4816743,0 Z M16.9069729,5.43474739 C17.9289582,6.73271399 18.5657098,8.34169102 18.6478246,10.0947307 C17.4625303,9.84667641 16.3401044,9.7235261 15.3085177,9.7235261 L15.3085177,9.7235261 L15.2945324,9.7235261 C14.4559791,9.7235261 13.6716138,9.80301044 12.9230668,9.92966806 C12.7501127,9.4894572 12.5675574,9.06581837 12.3832484,8.65875157 C14.0288768,7.93462422 15.6203173,6.90045094 16.9069729,5.43474739 L16.9069729,5.43474739 Z M10.4816743,2.30421294 C12.4085449,2.30421294 14.1825846,2.98029019 15.5792818,4.10354906 C14.5118768,5.38406681 13.0977307,6.31604593 11.5656514,6.97029019 C10.4921524,4.89229854 9.45447182,3.40826931 8.74345303,2.49895616 C9.30510438,2.37584969 9.88595825,2.30421294 10.4816743,2.30421294 L10.4816743,2.30421294 Z M6.86989353,3.15587474 C7.43417537,3.8293215 8.57492693,5.30287265 9.78731524,7.60620877 C7.31887265,8.34169102 4.83298121,8.51547808 3.32795198,8.51547808 C3.28516284,8.51547808 3.24496033,8.51547808 3.20304802,8.51372443 L3.20129436,8.51372443 C2.9471023,8.51372443 2.73135908,8.50763048 2.54792693,8.49798539 C3.13404175,6.15273695 4.74122129,4.20754071 6.86989353,3.15587474 L6.86989353,3.15587474 Z M2.30333612,10.4825511 C2.30333612,10.4484864 2.30421294,10.4013132 2.31118372,10.3611545 C2.54003549,10.3760167 2.84311065,10.3794802 3.20212735,10.3794802 L3.203881,10.3794802 C4.84863257,10.3698789 7.71712735,10.2344969 10.624904,9.31382881 C10.7812422,9.66061378 10.938501,10.0213403 11.0957161,10.3978058 C9.15222965,11.0494196 7.62453445,12.0792526 6.49075365,13.1064551 C5.40239248,14.1048539 4.66695407,15.0875136 4.23717745,15.7425908 C3.0318476,14.3145031 2.30421294,12.4880731 2.30333612,10.4825511 L2.30333612,10.4825511 Z M10.4816743,18.6661503 C8.66046138,18.6661503 6.98339875,18.0582025 5.62690397,17.0502025 C5.91516075,16.5776367 6.53095616,15.6587662 7.52234029,14.7162651 C8.53643424,13.7379896 9.93834864,12.7352067 11.7691628,12.1386576 C12.3893424,13.8812192 12.9562109,15.8814802 13.3868205,18.1219478 C12.4836889,18.4678559 11.5036597,18.6661503 10.4816743,18.6661503 L10.4816743,18.6661503 Z M15.1093466,17.2126785 C14.6961858,15.1853236 14.169476,13.3458288 13.5973466,11.7115553 C14.1301503,11.6329478 14.6944322,11.5910355 15.275286,11.5910355 L15.297119,11.5910355 L15.3084739,11.5910355 C16.2762714,11.5910355 17.3559081,11.7124322 18.5097683,11.9771023 C18.1132234,14.1433027 16.8528288,16.006428 15.1093466,17.2126785 L15.1093466,17.2126785 Z" id="Dribbble_3_"></path>
                </g>
            </g>
        </g>
    </g>
</svg>