<?xml version="1.0" encoding="UTF-8"?>
<svg width="21px" height="17px" viewBox="0 0 21 17" version="1.1" xmlns="http://www.w3.org/2000/svg" xmlns:xlink="http://www.w3.org/1999/xlink">
    <!-- Generator: Sketch 48.2 (47327) - http://www.bohemiancoding.com/sketch -->
    <title>Shape</title>
    <desc>Created with Sketch.</desc>
    <defs></defs>
    <g id="Template_white" stroke="none" stroke-width="1" fill="none" fill-rule="evenodd" transform="translate(-660.000000, -522.000000)">
        <g id="Header" transform="translate(444.000000, 231.000000)" fill="#010002">
            <g id="Group" transform="translate(117.000000, 275.000000)">
                <g id="twitter1" transform="translate(99.000000, 16.000000)">
                    <path d="M21,2.02607945 C20.2270833,2.367338 19.3977549,2.59877564 18.5263922,2.70210029 C19.4161127,2.17121947 20.0971716,1.32916802 20.4199608,0.328881472 C19.5853824,0.820511234 18.6641618,1.17749756 17.6825833,1.37101758 C16.8965588,0.535496581 15.7785147,0.0150781504 14.5384167,0.0150781504 C12.1593088,0.0150781504 10.2302941,1.93718333 10.2302941,4.30647021 C10.2302941,4.64249756 10.268348,4.97069521 10.341848,5.28453273 C6.76203431,5.10537284 3.58770588,3.39641322 1.46317157,0.799586454 C1.09179412,1.43245848 0.88052451,2.16988603 0.88052451,2.95706122 C0.88052451,4.44637903 1.64163725,5.7604689 2.79643137,6.52928362 C2.09042647,6.50576034 1.42642157,6.31224031 0.845112745,5.9905731 L0.845112745,6.0441843 C0.845112745,8.12319114 2.33058824,9.85830674 4.30026471,10.2532107 C3.93938725,10.3499707 3.55884804,10.4035819 3.16516667,10.4035819 C2.88698529,10.4035819 2.61796569,10.3761267 2.35419608,10.3238147 C2.90270098,12.0301758 4.49317647,13.271029 6.37758333,13.3050488 C4.90391176,14.4557066 3.0457549,15.1395571 1.02752451,15.1395571 C0.679789216,15.1395571 0.337269608,15.1186324 3.43137255e-05,15.0807148 C1.9067451,16.3006773 4.17038725,17.0119831 6.60329902,17.0119831 C14.5279853,17.0119831 18.85975,10.4715874 18.85975,4.79943341 L18.8453039,4.24373006 C19.6916863,3.64221101 20.4239069,2.88645718 21,2.02607945 L21,2.02607945 Z" id="Shape"></path>
                </g>
            </g>
        </g>
    </g>
</svg>