<?xml version="1.0" encoding="UTF-8"?>
<svg width="21px" height="21px" viewBox="0 0 21 21" version="1.1" xmlns="http://www.w3.org/2000/svg" xmlns:xlink="http://www.w3.org/1999/xlink">
    <!-- Generator: Sketch 48.2 (47327) - http://www.bohemiancoding.com/sketch -->
    <title>LinkedIn</title>
    <desc>Created with Sketch.</desc>
    <defs></defs>
    <g id="Template_white" stroke="none" stroke-width="1" fill="none" fill-rule="evenodd" transform="translate(-820.000000, -521.000000)">
        <g id="Header" transform="translate(444.000000, 231.000000)" fill="#000000">
            <g id="Group" transform="translate(117.000000, 275.000000)">
                <g id="linkedin11" transform="translate(259.000000, 15.000000)">
                    <path d="M20.9427593,12.2965316 L20.9427593,20.0392033 L16.4540479,20.0392033 L16.4540479,12.815089 C16.4540479,11.0003326 15.8048042,9.76183234 14.1800394,9.76183234 C12.9397376,9.76183234 12.2016331,10.5964908 11.8769139,11.4038823 C11.7584977,11.6925216 11.7280173,12.0942698 11.7280173,12.4983064 L11.7280173,20.0392033 L7.23779642,20.0392033 C7.23779642,20.0392033 7.29827045,7.80392485 7.23779642,6.53625876 L11.7275791,6.53625876 L11.7275791,8.4502471 C11.7184739,8.46456221 11.706642,8.47999721 11.6980724,8.4938741 L11.7275791,8.4938741 L11.7275791,8.4502471 C12.3240906,7.53149959 13.3893975,6.21903792 15.7738855,6.21903792 C18.728105,6.21898923 20.9427593,8.14894817 20.9427593,12.2965316 L20.9427593,12.2965316 Z M2.54083426,0.0271694904 C1.00473554,0.0271694904 0,1.0347291 0,2.35970432 C0,3.65580587 0.975667111,4.69394333 2.48123667,4.69394333 L2.51123023,4.69394333 C4.07707904,4.69394333 5.0508959,3.65600063 5.0508959,2.35970432 C5.02138925,1.0347291 4.07707904,0.0271694904 2.54083426,0.0271694904 L2.54083426,0.0271694904 Z M0.266679747,20.0392033 L4.75519641,20.0392033 L4.75519641,6.53625876 L0.266679747,6.53625876 L0.266679747,20.0392033 L0.266679747,20.0392033 Z" id="LinkedIn"></path>
                </g>
            </g>
        </g>
    </g>
</svg>